REM DIRINDEX 1\2,1\3,1\4
REM DIRNAME folder01,folder02,folder03,folder04
TITLE ""
FILE "DISC3Track01.mp3" MP3
  TRACK 01 AUDIO
    TITLE "0:"
    INDEX 01 00:00:00
  TRACK 02 AUDIO
    TITLE "4:cjc105_4271"
    INDEX 01 00:00:15
  TRACK 03 AUDIO
    TITLE "0:"
    INDEX 01 00:10:10
  TRACK 04 AUDIO
    TITLE "4:cjc105_4272"
    INDEX 01 00:10:55
  TRACK 05 AUDIO
    TITLE "0:"
    INDEX 01 00:14:60
  TRACK 06 AUDIO
    TITLE "3:cjc105_4273"
    INDEX 01 00:15:32
  TRACK 07 AUDIO
    TITLE "2:cjc105_4274"
    INDEX 01 00:16:55
  TRACK 08 AUDIO
    TITLE "3:cjc105_4275"
    INDEX 01 00:18:27
  TRACK 09 AUDIO
    TITLE "2:cjc105_4276"
    INDEX 01 00:19:26
  TRACK 10 AUDIO
    TITLE "3:cjc105_4277"
    INDEX 01 00:21:33
  TRACK 11 AUDIO
    TITLE "2:cjc105_4278"
    INDEX 01 00:22:32
  TRACK 12 AUDIO
    TITLE "3:cjc105_4279"
    INDEX 01 00:23:44
  TRACK 13 AUDIO
    TITLE "2:cjc105_4280"
    INDEX 01 00:24:33
  TRACK 14 AUDIO
    TITLE "3:cjc105_4281"
    INDEX 01 00:25:74
  TRACK 15 AUDIO
    TITLE "2:cjc105_4282"
    INDEX 01 00:27:04
  TRACK 16 AUDIO
    TITLE "3:cjc105_4283"
    INDEX 01 00:28:37
  TRACK 17 AUDIO
    TITLE "2:cjc105_4284"
    INDEX 01 00:29:38
  TRACK 18 AUDIO
    TITLE "3:cjc105_4285"
    INDEX 01 00:31:29
  TRACK 19 AUDIO
    TITLE "2:cjc105_4286"
    INDEX 01 00:32:43
  TRACK 20 AUDIO
    TITLE "3:cjc105_4287"
    INDEX 01 00:34:08
  TRACK 21 AUDIO
    TITLE "2:cjc105_4288"
    INDEX 01 00:35:06
  TRACK 22 AUDIO
    TITLE "3:cjc105_4289"
    INDEX 01 00:36:35
  TRACK 23 AUDIO
    TITLE "2:cjc105_4290"
    INDEX 01 00:37:34
  TRACK 24 AUDIO
    TITLE "3:cjc105_4291"
    INDEX 01 00:38:73
  TRACK 25 AUDIO
    TITLE "2:cjc105_4292"
    INDEX 01 00:40:05
  TRACK 26 AUDIO
    TITLE "3:cjc105_4293"
    INDEX 01 00:41:57
  TRACK 27 AUDIO
    TITLE "2:cjc105_4294"
    INDEX 01 00:42:49
  TRACK 28 AUDIO
    TITLE "3:cjc105_4295"
    INDEX 01 00:44:11
  TRACK 29 AUDIO
    TITLE "2:cjc105_4296"
    INDEX 01 00:45:08
  TRACK 30 AUDIO
    TITLE "3:cjc105_4297"
    INDEX 01 00:48:48
  TRACK 31 AUDIO
    TITLE "2:cjc105_4298"
    INDEX 01 00:49:41
  TRACK 32 AUDIO
    TITLE "3:cjc105_4299"
    INDEX 01 00:51:11
  TRACK 33 AUDIO
    TITLE "2:cjc105_4300"
    INDEX 01 00:52:16
  TRACK 34 AUDIO
    TITLE "3:cjc105_4301"
    INDEX 01 00:53:60
  TRACK 35 AUDIO
    TITLE "2:cjc105_4302"
    INDEX 01 00:54:68
  TRACK 36 AUDIO
    TITLE "3:cjc105_4303"
    INDEX 01 00:56:43
  TRACK 37 AUDIO
    TITLE "2:cjc105_4304"
    INDEX 01 00:57:52
  TRACK 38 AUDIO
    TITLE "3:cjc105_4305"
    INDEX 01 00:58:69
  TRACK 39 AUDIO
    TITLE "2:cjc105_4306"
    INDEX 01 00:59:67
  TRACK 40 AUDIO
    TITLE "3:cjc105_4307"
    INDEX 01 01:01:15
  TRACK 41 AUDIO
    TITLE "2:cjc105_4308"
    INDEX 01 01:02:46
  TRACK 42 AUDIO
    TITLE "3:cjc105_4309"
    INDEX 01 01:04:27
  TRACK 43 AUDIO
    TITLE "2:cjc105_4310"
    INDEX 01 01:05:36
  TRACK 44 AUDIO
    TITLE "3:cjc105_4311"
    INDEX 01 01:06:71
  TRACK 45 AUDIO
    TITLE "2:cjc105_4312"
    INDEX 01 01:07:57
  TRACK 46 AUDIO
    TITLE "3:cjc105_4313"
    INDEX 01 01:11:19
  TRACK 47 AUDIO
    TITLE "2:cjc105_4314"
    INDEX 01 01:12:17
  TRACK 48 AUDIO
    TITLE "3:cjc105_4315"
    INDEX 01 01:13:73
  TRACK 49 AUDIO
    TITLE "2:cjc105_4316"
    INDEX 01 01:15:01
  TRACK 50 AUDIO
    TITLE "3:cjc105_4317"
    INDEX 01 01:16:14
  TRACK 51 AUDIO
    TITLE "2:cjc105_4318"
    INDEX 01 01:17:20
  TRACK 52 AUDIO
    TITLE "3:cjc105_4319"
    INDEX 01 01:18:56
  TRACK 53 AUDIO
    TITLE "2:cjc105_4320"
    INDEX 01 01:19:56
  TRACK 54 AUDIO
    TITLE "3:cjc105_4321"
    INDEX 01 01:23:52
  TRACK 55 AUDIO
    TITLE "2:cjc105_4322"
    INDEX 01 01:24:45
  TRACK 56 AUDIO
    TITLE "3:cjc105_4323"
    INDEX 01 01:26:01
  TRACK 57 AUDIO
    TITLE "2:cjc105_4324"
    INDEX 01 01:26:74
  TRACK 58 AUDIO
    TITLE "3:cjc105_4325"
    INDEX 01 01:31:45
  TRACK 59 AUDIO
    TITLE "2:cjc105_4326"
    INDEX 01 01:32:62
  TRACK 60 AUDIO
    TITLE "3:cjc105_4327"
    INDEX 01 01:34:16
  TRACK 61 AUDIO
    TITLE "2:cjc105_4328"
    INDEX 01 01:35:33
  TRACK 62 AUDIO
    TITLE "3:cjc105_4329"
    INDEX 01 01:37:40
  TRACK 63 AUDIO
    TITLE "2:cjc105_4330"
    INDEX 01 01:38:28
  TRACK 64 AUDIO
    TITLE "3:cjc105_4331"
    INDEX 01 01:39:68
  TRACK 65 AUDIO
    TITLE "2:cjc105_4332"
    INDEX 01 01:40:58
  TRACK 66 AUDIO
    TITLE "3:cjc105_4333"
    INDEX 01 01:42:18
  TRACK 67 AUDIO
    TITLE "2:cjc105_4334"
    INDEX 01 01:43:11
  TRACK 68 AUDIO
    TITLE "3:cjc105_4335"
    INDEX 01 01:45:26
  TRACK 69 AUDIO
    TITLE "2:cjc105_4336"
    INDEX 01 01:46:06
  TRACK 70 AUDIO
    TITLE "3:cjc105_4337"
    INDEX 01 01:47:39
  TRACK 71 AUDIO
    TITLE "2:cjc105_4338"
    INDEX 01 01:48:52
  TRACK 72 AUDIO
    TITLE "3:cjc105_4339"
    INDEX 01 01:51:07
  TRACK 73 AUDIO
    TITLE "2:cjc105_4340"
    INDEX 01 01:52:00
  TRACK 74 AUDIO
    TITLE "3:cjc105_4341"
    INDEX 01 01:53:12
  TRACK 75 AUDIO
    TITLE "2:cjc105_4342"
    INDEX 01 01:54:17
  TRACK 76 AUDIO
    TITLE "3:cjc105_4343"
    INDEX 01 01:57:00
  TRACK 77 AUDIO
    TITLE "2:cjc105_4344"
    INDEX 01 01:57:72
  TRACK 78 AUDIO
    TITLE "3:cjc105_4345"
    INDEX 01 02:01:23
  TRACK 79 AUDIO
    TITLE "2:cjc105_4346"
    INDEX 01 02:02:40
  TRACK 80 AUDIO
    TITLE "3:cjc105_4347"
    INDEX 01 02:04:70
  TRACK 81 AUDIO
    TITLE "2:cjc105_4348"
    INDEX 01 02:05:68
  TRACK 82 AUDIO
    TITLE "3:cjc105_4349"
    INDEX 01 02:07:37
  TRACK 83 AUDIO
    TITLE "2:cjc105_4350"
    INDEX 01 02:08:52
  TRACK 84 AUDIO
    TITLE "3:cjc105_4351"
    INDEX 01 02:10:02
  TRACK 85 AUDIO
    TITLE "2:cjc105_4352"
    INDEX 01 02:11:41
  TRACK 86 AUDIO
    TITLE "3:cjc105_4353"
    INDEX 01 02:12:58
  TRACK 87 AUDIO
    TITLE "2:cjc105_4354"
    INDEX 01 02:13:54
  TRACK 88 AUDIO
    TITLE "3:cjc105_4355"
    INDEX 01 02:15:33
  TRACK 89 AUDIO
    TITLE "2:cjc105_4356"
    INDEX 01 02:16:34
  TRACK 90 AUDIO
    TITLE "0:"
    INDEX 01 02:18:35
